<svg width="181" height="72" viewBox="0 0 181 72" fill="none" xmlns="http://www.w3.org/2000/svg">
<g filter="url(#filter0_d_18_6)">
<path d="M23.0108 62C22.5575 62 22.2242 61.98 22.0108 61.94C21.7975 61.9 21.6908 61.8533 21.6908 61.8L22.0908 60.93C22.2442 60.9567 22.6242 60.9833 23.2308 61.01C23.8442 61.03 24.6842 61.04 25.7508 61.04H25.9408C26.2275 61.04 26.4308 60.99 26.5508 60.89C26.6708 60.7833 26.7308 60.6067 26.7308 60.36V60.16C26.7308 59.9267 26.6808 59.76 26.5808 59.66C26.4875 59.56 26.2742 59.51 25.9408 59.51H23.6208C22.9475 59.51 22.4575 59.3867 22.1508 59.14C21.8442 58.8867 21.6908 58.4767 21.6908 57.91V57.75C21.6908 57.4567 21.7442 57.1867 21.8508 56.94C21.9642 56.6933 22.1542 56.4967 22.4208 56.35C22.6875 56.1967 23.0542 56.12 23.5208 56.12H26.2408C26.6942 56.12 27.0608 56.1433 27.3408 56.19C27.6208 56.2367 27.7608 56.2867 27.7608 56.34L27.5608 57.18C27.3875 57.16 26.9942 57.14 26.3808 57.12C25.7675 57.0933 24.9442 57.08 23.9108 57.08L23.8008 57.07C23.4942 57.07 23.2875 57.1333 23.1808 57.26C23.0742 57.38 23.0175 57.5333 23.0108 57.72V57.89C23.0108 58.11 23.0708 58.2767 23.1908 58.39C23.3175 58.4967 23.5242 58.55 23.8108 58.55H26.0308C26.4575 58.55 26.8208 58.5933 27.1208 58.68C27.4208 58.7667 27.6508 58.9267 27.8108 59.16C27.9708 59.3867 28.0508 59.7233 28.0508 60.17V60.33C28.0508 60.83 27.9208 61.2333 27.6608 61.54C27.4075 61.8467 26.9642 62 26.3308 62H23.0108ZM29.2494 63.86V57.52H30.0694L30.3194 57.65C30.6194 57.6167 30.9761 57.5867 31.3894 57.56C31.8094 57.5333 32.2861 57.52 32.8194 57.52H33.3294C33.6627 57.52 33.9194 57.5633 34.0994 57.65C34.2794 57.7367 34.4061 57.8467 34.4794 57.98C34.5594 58.1133 34.6061 58.2533 34.6194 58.4C34.6394 58.5467 34.6494 58.68 34.6494 58.8V60.72C34.6494 60.82 34.6394 60.9433 34.6194 61.09C34.6061 61.23 34.5594 61.37 34.4794 61.51C34.4061 61.65 34.2794 61.7667 34.0994 61.86C33.9194 61.9533 33.6627 62 33.3294 62H32.8194C32.3127 62 31.8627 61.9867 31.4694 61.96C31.0761 61.9333 30.7427 61.9067 30.4694 61.88V63.86H29.2494ZM30.7794 61.14H32.9494C33.0761 61.14 33.1861 61.1067 33.2794 61.04C33.3794 60.9733 33.4294 60.8733 33.4294 60.74V58.78C33.4361 58.6333 33.3994 58.53 33.3194 58.47C33.2461 58.41 33.1227 58.38 32.9494 58.38H32.4494C32.0227 58.38 31.6427 58.39 31.3094 58.41C30.9827 58.4233 30.7027 58.44 30.4694 58.46V60.83C30.4694 60.9767 30.4827 61.0667 30.5094 61.1C30.5427 61.1267 30.6327 61.14 30.7794 61.14ZM36.9733 62C36.64 62 36.3833 61.9567 36.2033 61.87C36.0233 61.7833 35.8933 61.6733 35.8133 61.54C35.74 61.4067 35.6933 61.2667 35.6733 61.12C35.66 60.9733 35.6533 60.84 35.6533 60.72V58.8C35.6533 58.7 35.66 58.58 35.6733 58.44C35.6933 58.2933 35.74 58.15 35.8133 58.01C35.8933 57.87 36.0233 57.7533 36.2033 57.66C36.39 57.5667 36.6467 57.52 36.9733 57.52H39.1233C39.5633 57.52 39.9067 57.5633 40.1533 57.65C40.4067 57.73 40.5833 57.8633 40.6833 58.05C40.79 58.2367 40.8433 58.4867 40.8433 58.8V60.28H39.0933C38.4933 60.28 38.0033 60.2667 37.6233 60.24C37.25 60.2133 37 60.1967 36.8733 60.19V60.74C36.8667 61.0067 37.0267 61.14 37.3533 61.14H37.8633C38.2233 61.14 38.5733 61.1367 38.9133 61.13C39.26 61.1167 39.5767 61.1033 39.8633 61.09C40.15 61.07 40.38 61.0533 40.5533 61.04L40.9533 61.69C40.9533 61.8967 40.2967 62 38.9833 62H36.9733ZM36.8733 59.42H39.6233V58.78C39.6233 58.6467 39.6067 58.5533 39.5733 58.5C39.5467 58.4467 39.46 58.4133 39.3133 58.4C39.1667 58.3867 38.9167 58.38 38.5633 58.38H37.3533C37.0333 58.38 36.8733 58.5133 36.8733 58.78V59.42ZM43.1745 62C42.8412 62 42.5845 61.9567 42.4045 61.87C42.2245 61.7833 42.0945 61.6733 42.0145 61.54C41.9412 61.4067 41.8945 61.2667 41.8745 61.12C41.8612 60.9733 41.8545 60.84 41.8545 60.72V58.8C41.8545 58.7 41.8612 58.58 41.8745 58.44C41.8945 58.2933 41.9412 58.15 42.0145 58.01C42.0945 57.87 42.2245 57.7533 42.4045 57.66C42.5912 57.5667 42.8478 57.52 43.1745 57.52H44.5645C45.3978 57.52 45.9878 57.5433 46.3345 57.59C46.6878 57.63 46.8645 57.6733 46.8645 57.72L46.6645 58.48C46.4778 58.4667 46.2412 58.4533 45.9545 58.44C45.6678 58.42 45.3578 58.4067 45.0245 58.4C44.6978 58.3867 44.3778 58.38 44.0645 58.38H43.5545C43.2345 58.38 43.0745 58.5133 43.0745 58.78V60.74C43.0678 61.0067 43.2278 61.14 43.5545 61.14H44.0645C44.4245 61.14 44.7745 61.1367 45.1145 61.13C45.4612 61.1167 45.7778 61.1033 46.0645 61.09C46.3512 61.07 46.5812 61.0533 46.7545 61.04L47.1545 61.69C47.1545 61.8967 46.4978 62 45.1845 62H43.1745ZM48.5629 56.89C48.3163 56.89 48.1363 56.84 48.0229 56.74C47.9096 56.64 47.8529 56.4733 47.8529 56.24C47.8529 56 47.9063 55.8333 48.0129 55.74C48.1263 55.64 48.3096 55.59 48.5629 55.59C48.8163 55.59 48.9996 55.64 49.1129 55.74C49.2263 55.8333 49.2829 56 49.2829 56.24C49.2829 56.4667 49.2263 56.6333 49.1129 56.74C48.9996 56.84 48.8163 56.89 48.5629 56.89ZM47.9529 62V57.52H49.1729V62H47.9529ZM51.7699 62C51.2632 62 50.8965 61.8833 50.6699 61.65C50.4432 61.41 50.3299 61.0833 50.3299 60.67C50.3299 60.2367 50.4465 59.9033 50.6799 59.67C50.9199 59.4367 51.2832 59.32 51.7699 59.32H52.2799C52.7799 59.32 53.2299 59.3333 53.6299 59.36C54.0299 59.3867 54.3599 59.4133 54.6199 59.44V58.78C54.6199 58.72 54.6132 58.66 54.5999 58.6C54.5865 58.5333 54.5465 58.48 54.4799 58.44C54.4132 58.4 54.2999 58.38 54.1399 58.38H53.6399C52.9132 58.38 52.3065 58.3933 51.8199 58.42C51.3332 58.44 51.0032 58.46 50.8299 58.48L50.7199 57.72C50.7199 57.6267 50.9732 57.57 51.4799 57.55C51.9865 57.53 52.8332 57.52 54.0199 57.52H54.5199C54.8532 57.52 55.1099 57.5667 55.2899 57.66C55.4699 57.7533 55.5965 57.87 55.6699 58.01C55.7499 58.15 55.7965 58.2933 55.8099 58.44C55.8299 58.58 55.8399 58.7 55.8399 58.8V62H55.0199L54.6299 61.8C54.3499 61.8467 54.0132 61.8933 53.6199 61.94C53.2265 61.98 52.7765 62 52.2699 62H51.7699ZM52.0299 61.14H54.3199C54.4665 61.14 54.5532 61.1267 54.5799 61.1C54.6065 61.0733 54.6199 60.99 54.6199 60.85V60.08H52.0299C51.8499 60.08 51.7232 60.1233 51.6499 60.21C51.5832 60.2967 51.5499 60.4333 51.5499 60.62C51.5499 60.8067 51.5899 60.94 51.6699 61.02C51.7499 61.1 51.8699 61.14 52.0299 61.14ZM57.0936 62V56.46L56.9936 55.66H58.3136V62H57.0936ZM60.2231 56.89C59.9764 56.89 59.7964 56.84 59.6831 56.74C59.5698 56.64 59.5131 56.4733 59.5131 56.24C59.5131 56 59.5664 55.8333 59.6731 55.74C59.7864 55.64 59.9698 55.59 60.2231 55.59C60.4764 55.59 60.6598 55.64 60.7731 55.74C60.8864 55.8333 60.9431 56 60.9431 56.24C60.9431 56.4667 60.8864 56.6333 60.7731 56.74C60.6598 56.84 60.4764 56.89 60.2231 56.89ZM59.6131 62V57.52H60.8331V62H59.6131ZM61.94 62V61.4L65.17 58.39H62.14V57.52H67.04V58.12L63.72 61.14H67.13L67.43 61.89C67.43 61.9167 67.33 61.9433 67.13 61.97C66.93 61.99 66.5934 62 66.12 62H61.94ZM69.4538 62C69.1205 62 68.8638 61.9567 68.6838 61.87C68.5038 61.7833 68.3738 61.6733 68.2938 61.54C68.2205 61.4067 68.1738 61.2667 68.1538 61.12C68.1405 60.9733 68.1338 60.84 68.1338 60.72V58.8C68.1338 58.7 68.1405 58.58 68.1538 58.44C68.1738 58.2933 68.2205 58.15 68.2938 58.01C68.3738 57.87 68.5038 57.7533 68.6838 57.66C68.8705 57.5667 69.1271 57.52 69.4538 57.52H71.6038C72.0438 57.52 72.3871 57.5633 72.6338 57.65C72.8871 57.73 73.0638 57.8633 73.1638 58.05C73.2705 58.2367 73.3238 58.4867 73.3238 58.8V60.28H71.5738C70.9738 60.28 70.4838 60.2667 70.1038 60.24C69.7305 60.2133 69.4805 60.1967 69.3538 60.19V60.74C69.3471 61.0067 69.5071 61.14 69.8338 61.14H70.3438C70.7038 61.14 71.0538 61.1367 71.3938 61.13C71.7405 61.1167 72.0571 61.1033 72.3438 61.09C72.6305 61.07 72.8605 61.0533 73.0338 61.04L73.4338 61.69C73.4338 61.8967 72.7771 62 71.4638 62H69.4538ZM69.3538 59.42H72.1038V58.78C72.1038 58.6467 72.0871 58.5533 72.0538 58.5C72.0271 58.4467 71.9405 58.4133 71.7938 58.4C71.6471 58.3867 71.3971 58.38 71.0438 58.38H69.8338C69.5138 58.38 69.3538 58.5133 69.3538 58.78V59.42ZM75.655 62C75.3216 62 75.065 61.9567 74.885 61.87C74.705 61.7833 74.575 61.6733 74.495 61.54C74.4216 61.4067 74.375 61.2667 74.355 61.12C74.3416 60.9733 74.335 60.84 74.335 60.72V58.8C74.335 58.7 74.3416 58.58 74.355 58.44C74.375 58.2933 74.4216 58.15 74.495 58.01C74.575 57.87 74.705 57.7533 74.885 57.66C75.0716 57.5667 75.3283 57.52 75.655 57.52H76.165C76.7783 57.52 77.2716 57.5333 77.645 57.56C78.025 57.58 78.315 57.6033 78.515 57.63V55.66H79.735V62H78.915L78.525 61.8C78.245 61.8467 77.9083 61.8933 77.515 61.94C77.1216 61.98 76.6683 62 76.155 62H75.655ZM76.035 61.14H78.205C78.345 61.14 78.4316 61.1233 78.465 61.09C78.4983 61.0567 78.515 60.9733 78.515 60.84V58.45C78.2883 58.4367 78.0016 58.4233 77.655 58.41C77.3083 58.39 76.9383 58.38 76.545 58.38H76.035C75.715 58.38 75.555 58.5133 75.555 58.78V60.74C75.555 61.0067 75.715 61.14 76.035 61.14ZM85.1638 62C84.6905 62 84.3205 61.9333 84.0538 61.8C83.7871 61.6667 83.6005 61.4667 83.4938 61.2C83.3871 60.9333 83.3338 60.6033 83.3338 60.21V57.98C83.3338 57.34 83.4771 56.87 83.7638 56.57C84.0505 56.2633 84.5171 56.11 85.1638 56.11H88.1738C88.6338 56.11 88.9838 56.1367 89.2238 56.19C89.4705 56.2367 89.5938 56.2867 89.5938 56.34L89.3938 57.17C89.2805 57.15 88.9438 57.13 88.3838 57.11C87.8305 57.0833 87.0238 57.07 85.9638 57.07H85.4538C84.9205 57.07 84.6538 57.3067 84.6538 57.78V60.33C84.6538 60.5567 84.7105 60.7333 84.8238 60.86C84.9438 60.98 85.1538 61.04 85.4538 61.04H85.8638C86.9705 61.04 87.8271 61.03 88.4338 61.01C89.0471 60.9833 89.4271 60.9567 89.5738 60.93L89.9838 61.59C89.9838 61.6233 89.9271 61.6733 89.8138 61.74C89.7071 61.8067 89.5071 61.8667 89.2138 61.92C88.9205 61.9733 88.4971 62 87.9438 62H85.1638ZM92.0726 62C91.566 62 91.1993 61.8833 90.9726 61.65C90.746 61.41 90.6326 61.0833 90.6326 60.67C90.6326 60.2367 90.7493 59.9033 90.9826 59.67C91.2226 59.4367 91.586 59.32 92.0726 59.32H92.5826C93.0826 59.32 93.5326 59.3333 93.9326 59.36C94.3326 59.3867 94.6626 59.4133 94.9226 59.44V58.78C94.9226 58.72 94.916 58.66 94.9026 58.6C94.8893 58.5333 94.8493 58.48 94.7826 58.44C94.716 58.4 94.6026 58.38 94.4426 58.38H93.9426C93.216 58.38 92.6093 58.3933 92.1226 58.42C91.636 58.44 91.306 58.46 91.1326 58.48L91.0226 57.72C91.0226 57.6267 91.276 57.57 91.7826 57.55C92.2893 57.53 93.136 57.52 94.3226 57.52H94.8226C95.156 57.52 95.4126 57.5667 95.5926 57.66C95.7726 57.7533 95.8993 57.87 95.9726 58.01C96.0526 58.15 96.0993 58.2933 96.1126 58.44C96.1326 58.58 96.1426 58.7 96.1426 58.8V62H95.3226L94.9326 61.8C94.6526 61.8467 94.316 61.8933 93.9226 61.94C93.5293 61.98 93.0793 62 92.5726 62H92.0726ZM92.3326 61.14H94.6226C94.7693 61.14 94.856 61.1267 94.8826 61.1C94.9093 61.0733 94.9226 60.99 94.9226 60.85V60.08H92.3326C92.1526 60.08 92.026 60.1233 91.9526 60.21C91.886 60.2967 91.8526 60.4333 91.8526 60.62C91.8526 60.8067 91.8926 60.94 91.9726 61.02C92.0526 61.1 92.1726 61.14 92.3326 61.14ZM97.2963 62V57.52H98.1163L98.4963 57.72C98.6696 57.6267 98.8563 57.5533 99.0563 57.5C99.2563 57.4467 99.5096 57.42 99.8163 57.42C100.303 57.42 100.696 57.4733 100.996 57.58C101.303 57.6867 101.506 57.7667 101.606 57.82L101.256 58.69C101.176 58.65 101.043 58.6 100.856 58.54C100.676 58.4733 100.463 58.4133 100.216 58.36C99.9696 58.3067 99.6996 58.28 99.4063 58.28H99.2963C98.9763 58.28 98.7663 58.3433 98.6663 58.47C98.573 58.5967 98.523 58.8067 98.5163 59.1V62H97.2963ZM106.433 62C105.96 62 105.59 61.9333 105.323 61.8C105.057 61.6667 104.87 61.4667 104.763 61.2C104.657 60.9333 104.603 60.6033 104.603 60.21V57.98C104.603 57.34 104.747 56.87 105.033 56.57C105.32 56.2633 105.787 56.11 106.433 56.11H109.443C109.903 56.11 110.253 56.1367 110.493 56.19C110.74 56.2367 110.863 56.2867 110.863 56.34L110.663 57.17C110.55 57.15 110.213 57.13 109.653 57.11C109.1 57.0833 108.293 57.07 107.233 57.07H106.723C106.19 57.07 105.923 57.3067 105.923 57.78V60.33C105.923 60.5567 105.98 60.7333 106.093 60.86C106.213 60.98 106.423 61.04 106.723 61.04H107.133C108.24 61.04 109.097 61.03 109.703 61.01C110.317 60.9833 110.697 60.9567 110.843 60.93L111.253 61.59C111.253 61.6233 111.197 61.6733 111.083 61.74C110.977 61.8067 110.777 61.8667 110.483 61.92C110.19 61.9733 109.767 62 109.213 62H106.433ZM113.272 62C112.825 62 112.492 61.91 112.272 61.73C112.059 61.55 111.952 61.2567 111.952 60.85V58.8C111.952 58.7 111.959 58.58 111.972 58.44C111.992 58.2933 112.039 58.15 112.112 58.01C112.192 57.87 112.322 57.7533 112.502 57.66C112.689 57.5667 112.945 57.52 113.272 57.52H116.032C116.365 57.52 116.622 57.5667 116.802 57.66C116.982 57.7533 117.109 57.87 117.182 58.01C117.262 58.15 117.309 58.2933 117.322 58.44C117.342 58.58 117.352 58.7 117.352 58.8V60.72C117.352 60.84 117.342 60.9733 117.322 61.12C117.309 61.2667 117.262 61.4067 117.182 61.54C117.102 61.6733 116.972 61.7833 116.792 61.87C116.612 61.9567 116.359 62 116.032 62H113.272ZM113.652 61.14H115.652C115.979 61.14 116.142 61.0067 116.142 60.74V58.78C116.142 58.5133 115.979 58.38 115.652 58.38H113.652C113.332 58.38 113.172 58.5133 113.172 58.78V60.74C113.172 61.0067 113.332 61.14 113.652 61.14ZM118.449 62V57.52H119.269L119.669 57.72C119.949 57.6667 120.285 57.62 120.679 57.58C121.072 57.54 121.522 57.52 122.029 57.52H122.529C122.862 57.52 123.119 57.5667 123.299 57.66C123.479 57.7533 123.605 57.87 123.679 58.01C123.759 58.15 123.805 58.2933 123.819 58.44C123.839 58.58 123.849 58.7 123.849 58.8V62H122.629V58.78C122.629 58.5133 122.469 58.38 122.149 58.38H119.969C119.842 58.38 119.759 58.3933 119.719 58.42C119.685 58.44 119.669 58.5 119.669 58.6V62H118.449ZM126.131 62C125.685 62 125.368 61.9767 125.181 61.93C124.995 61.8833 124.901 61.8367 124.901 61.79L125.201 61.04C125.395 61.06 125.748 61.0833 126.261 61.11C126.781 61.13 127.421 61.14 128.181 61.14H128.681C128.848 61.14 128.951 61.0967 128.991 61.01C129.038 60.9167 129.061 60.7933 129.061 60.64C129.061 60.4867 129.035 60.3633 128.981 60.27C128.935 60.1767 128.835 60.13 128.681 60.13H126.221C125.755 60.13 125.418 60.0433 125.211 59.87C125.005 59.69 124.901 59.4233 124.901 59.07V58.67C124.901 58.5767 124.911 58.4667 124.931 58.34C124.951 58.2133 125.001 58.0867 125.081 57.96C125.161 57.8333 125.291 57.73 125.471 57.65C125.651 57.5633 125.901 57.52 126.221 57.52H128.981C129.381 57.52 129.665 57.5433 129.831 57.59C129.998 57.6367 130.081 57.6833 130.081 57.73L129.981 58.48C129.788 58.46 129.431 58.44 128.911 58.42C128.391 58.3933 127.755 58.38 127.001 58.38H126.501C126.335 58.38 126.228 58.4267 126.181 58.52C126.141 58.6067 126.121 58.71 126.121 58.83C126.121 58.9567 126.141 59.0633 126.181 59.15C126.228 59.23 126.335 59.27 126.501 59.27H128.961C129.415 59.27 129.748 59.3633 129.961 59.55C130.175 59.7367 130.281 59.9733 130.281 60.26V60.85C130.281 60.97 130.271 61.0967 130.251 61.23C130.238 61.3633 130.191 61.49 130.111 61.61C130.031 61.7233 129.901 61.8167 129.721 61.89C129.541 61.9633 129.288 62 128.961 62H126.131ZM132.698 62C132.372 62 132.115 61.9567 131.928 61.87C131.748 61.7833 131.618 61.6733 131.538 61.54C131.465 61.4067 131.418 61.2667 131.398 61.12C131.385 60.9733 131.378 60.84 131.378 60.72V57.52H132.598V60.74C132.592 60.8867 132.638 60.99 132.738 61.05C132.845 61.11 132.958 61.14 133.078 61.14H135.058C135.205 61.14 135.292 61.1267 135.318 61.1C135.345 61.0733 135.358 60.9867 135.358 60.84V57.52H136.578V62H135.758L135.378 61.8C135.112 61.8533 134.795 61.9 134.428 61.94C134.068 61.98 133.662 62 133.208 62H132.698ZM137.875 62V56.46L137.775 55.66H139.095V62H137.875ZM142.034 62C141.528 62 141.181 61.8933 140.994 61.68C140.808 61.4667 140.714 61.1467 140.714 60.72V58.38H139.894V57.52H140.314C140.441 57.52 140.531 57.5 140.584 57.46C140.644 57.42 140.688 57.34 140.714 57.22L140.914 56.15H141.934V57.52H144.014V58.38H141.934V60.73C141.934 60.8967 141.974 61.0067 142.054 61.06C142.134 61.1133 142.254 61.14 142.414 61.14H143.824L143.924 61.9C143.784 61.92 143.571 61.9433 143.284 61.97C142.998 61.99 142.684 62 142.344 62H142.034ZM145.526 56.89C145.279 56.89 145.099 56.84 144.986 56.74C144.872 56.64 144.816 56.4733 144.816 56.24C144.816 56 144.869 55.8333 144.976 55.74C145.089 55.64 145.272 55.59 145.526 55.59C145.779 55.59 145.962 55.64 146.076 55.74C146.189 55.8333 146.246 56 146.246 56.24C146.246 56.4667 146.189 56.6333 146.076 56.74C145.962 56.84 145.779 56.89 145.526 56.89ZM144.916 62V57.52H146.136V62H144.916ZM147.443 62V57.52H148.263L148.663 57.72C148.943 57.6667 149.279 57.62 149.673 57.58C150.066 57.54 150.516 57.52 151.023 57.52H151.523C151.856 57.52 152.113 57.5667 152.293 57.66C152.473 57.7533 152.599 57.87 152.673 58.01C152.753 58.15 152.799 58.2933 152.813 58.44C152.833 58.58 152.843 58.7 152.843 58.8V62H151.623V58.78C151.623 58.5133 151.463 58.38 151.143 58.38H148.963C148.836 58.38 148.753 58.3933 148.713 58.42C148.679 58.44 148.663 58.5 148.663 58.6V62H147.443ZM157.286 63.76C156.552 63.76 155.956 63.7533 155.496 63.74C155.036 63.7267 154.682 63.7067 154.436 63.68C154.189 63.6533 154.019 63.62 153.926 63.58C153.839 63.54 153.796 63.4967 153.796 63.45L154.096 62.7C154.202 62.7333 154.389 62.7733 154.656 62.82C154.929 62.8733 155.276 62.9 155.696 62.9H157.406C157.652 62.9 157.826 62.8633 157.926 62.79C158.032 62.7167 158.086 62.5867 158.086 62.4V61.8C157.799 61.8533 157.459 61.9 157.066 61.94C156.679 61.98 156.232 62 155.726 62H155.226C154.892 62 154.636 61.9567 154.456 61.87C154.276 61.7833 154.146 61.6733 154.066 61.54C153.992 61.4067 153.946 61.2667 153.926 61.12C153.912 60.9733 153.906 60.84 153.906 60.72V58.8C153.906 58.7 153.912 58.58 153.926 58.44C153.946 58.2933 153.992 58.15 154.066 58.01C154.146 57.87 154.276 57.7533 154.456 57.66C154.642 57.5667 154.899 57.52 155.226 57.52H155.736C156.436 57.52 156.979 57.5333 157.366 57.56C157.759 57.5867 158.046 57.6167 158.226 57.65L158.486 57.52H159.306V62.48C159.306 62.6 159.286 62.7333 159.246 62.88C159.212 63.0267 159.142 63.1667 159.036 63.3C158.929 63.4333 158.776 63.5433 158.576 63.63C158.376 63.7167 158.112 63.76 157.786 63.76H157.286ZM155.606 61.14H157.776C157.929 61.14 158.019 61.1267 158.046 61.1C158.072 61.0733 158.086 60.9867 158.086 60.84V58.45C157.859 58.4367 157.572 58.4233 157.226 58.41C156.879 58.39 156.509 58.38 156.116 58.38H155.606C155.286 58.38 155.126 58.5133 155.126 58.78V60.74C155.119 61.0067 155.279 61.14 155.606 61.14Z" fill="white"/>
<path d="M29.615 50C27.1217 50 25.2883 49.89 24.115 49.67C22.9417 49.45 22.355 49.1933 22.355 48.9L25.655 41.805C26.4983 41.9517 28.24 42.0983 30.88 42.245C33.52 42.355 36.9483 42.41 41.165 42.41H45.51C46.7933 42.41 47.655 42.2267 48.095 41.86C48.535 41.4933 48.755 40.9617 48.755 40.265V39.715C48.755 38.835 48.535 38.23 48.095 37.9C47.655 37.57 46.7933 37.405 45.51 37.405H32.915C29.2117 37.405 26.5167 36.7267 24.83 35.37C23.1433 33.9767 22.3 31.7217 22.3 28.605V26.625C22.3 25.0117 22.5933 23.5267 23.18 22.17C23.8033 20.8133 24.8483 19.7317 26.315 18.925C27.7817 18.0817 29.7983 17.66 32.365 17.66H50.625C52.8617 17.66 54.7133 17.7883 56.18 18.045C57.6833 18.3017 58.435 18.5767 58.435 18.87L56.785 25.69C55.7583 25.58 53.815 25.47 50.955 25.36C48.1317 25.2133 44.5383 25.14 40.175 25.14L36.215 25.085C35.0783 25.085 34.2717 25.25 33.795 25.58C33.3183 25.8733 33.0617 26.4417 33.025 27.285V27.67C33.025 28.5133 33.2817 29.1 33.795 29.43C34.3083 29.76 35.1333 29.925 36.27 29.925H48.37C50.7167 29.925 52.715 30.1633 54.365 30.64C56.015 31.1167 57.28 31.9967 58.16 33.28C59.04 34.5267 59.48 36.3783 59.48 38.835V40.815C59.48 43.565 58.765 45.7833 57.335 47.47C55.9417 49.1567 53.5033 50 50.02 50H29.615ZM77.7894 50C73.8661 50 71.0244 49.1383 69.2644 47.415C67.5044 45.6917 66.6244 42.905 66.6244 39.055V28.99C66.6244 25.03 67.5961 22.1517 69.5394 20.355C71.4827 18.5217 74.2327 17.605 77.7894 17.605H93.8494C96.3794 17.605 98.3044 17.7517 99.6244 18.045C100.981 18.3017 101.659 18.5767 101.659 18.87L99.9544 25.745C99.0377 25.635 97.2411 25.525 94.5644 25.415C91.9244 25.2683 88.5877 25.195 84.5544 25.195H81.7494C80.0261 25.195 78.8527 25.525 78.2294 26.185C77.6427 26.8083 77.3494 27.78 77.3494 29.1V38.505C77.3494 39.7517 77.6061 40.7233 78.1194 41.42C78.6694 42.08 79.8794 42.41 81.7494 42.41H84.0044C89.2477 42.41 93.2444 42.355 95.9944 42.245C98.7444 42.0983 100.394 41.9517 100.944 41.805L104.299 47.745C104.299 47.9283 103.914 48.2033 103.144 48.57C102.411 48.9367 101.146 49.2667 99.3494 49.56C97.5894 49.8533 95.1327 50 91.9794 50H77.7894ZM120.436 50C116.513 50 113.671 49.1383 111.911 47.415C110.151 45.6917 109.271 42.905 109.271 39.055V28.99C109.271 25.03 110.243 22.1517 112.186 20.355C114.129 18.5217 116.879 17.605 120.436 17.605H136.496C139.026 17.605 140.951 17.7517 142.271 18.045C143.628 18.3017 144.306 18.5767 144.306 18.87L142.601 25.745C141.684 25.635 139.888 25.525 137.211 25.415C134.571 25.2683 131.234 25.195 127.201 25.195H124.396C122.673 25.195 121.499 25.525 120.876 26.185C120.289 26.8083 119.996 27.78 119.996 29.1V38.505C119.996 39.7517 120.253 40.7233 120.766 41.42C121.316 42.08 122.526 42.41 124.396 42.41H126.651C131.894 42.41 135.891 42.355 138.641 42.245C141.391 42.0983 143.041 41.9517 143.591 41.805L146.946 47.745C146.946 47.9283 146.561 48.2033 145.791 48.57C145.058 48.9367 143.793 49.2667 141.996 49.56C140.236 49.8533 137.779 50 134.626 50H120.436Z" fill="white"/>
</g>
<defs>
<filter id="filter0_d_18_6" x="17.6908" y="17.605" width="145.615" height="54.255" filterUnits="userSpaceOnUse" color-interpolation-filters="sRGB">
<feFlood flood-opacity="0" result="BackgroundImageFix"/>
<feColorMatrix in="SourceAlpha" type="matrix" values="0 0 0 0 0 0 0 0 0 0 0 0 0 0 0 0 0 0 127 0" result="hardAlpha"/>
<feOffset dy="4"/>
<feGaussianBlur stdDeviation="2"/>
<feComposite in2="hardAlpha" operator="out"/>
<feColorMatrix type="matrix" values="0 0 0 0 0 0 0 0 0 0 0 0 0 0 0 0 0 0 0.25 0"/>
<feBlend mode="normal" in2="BackgroundImageFix" result="effect1_dropShadow_18_6"/>
<feBlend mode="normal" in="SourceGraphic" in2="effect1_dropShadow_18_6" result="shape"/>
</filter>
</defs>
</svg>
